<svg xmlns="http://www.w3.org/2000/svg" xmlns:xlink="http://www.w3.org/1999/xlink" width="500" zoomAndPan="magnify" viewBox="0 0 375 374.999991" height="500" preserveAspectRatio="xMidYMid meet" version="1.0"><defs><g/></defs><g fill="#ffffff" fill-opacity="1"><g transform="translate(5.763305, 240.264517)"><g><path d="M 86.1875 -25.453125 C 83.5 -24.609375 80.769531 -23.765625 78 -22.921875 C 75.226562 -22.085938 72.414062 -21.421875 69.5625 -20.921875 C 69.226562 -19.910156 68.890625 -18.941406 68.546875 -18.015625 C 68.210938 -17.097656 67.796875 -16.132812 67.296875 -15.125 C 72.835938 -10.582031 78.585938 -6.378906 84.546875 -2.515625 C 90.515625 1.347656 96.441406 4.957031 102.328125 8.3125 C 115.429688 15.707031 129.25 21.84375 143.78125 26.71875 C 158.3125 31.59375 173.140625 33.441406 188.265625 32.265625 C 190.285156 32.265625 191.296875 33.144531 191.296875 34.90625 C 191.296875 36.664062 190.957031 38.050781 190.28125 39.0625 C 188.09375 42.925781 184.898438 45.023438 180.703125 45.359375 C 165.242188 46.535156 149.953125 44.644531 134.828125 39.6875 C 119.710938 34.738281 105.519531 28.484375 92.25 20.921875 C 87.207031 17.890625 82.125 14.78125 77 11.59375 C 71.875 8.40625 66.875 4.960938 62 1.265625 C 58.976562 11.335938 56.375 21.25 54.1875 31 C 53.851562 32.675781 52.96875 33.429688 51.53125 33.265625 C 50.101562 33.097656 48.507812 32.34375 46.75 31 C 44.988281 29.65625 43.5625 28.140625 42.46875 26.453125 C 41.375 24.773438 40.992188 23.179688 41.328125 21.671875 C 43.515625 11.585938 46.203125 1.421875 49.390625 -8.828125 C 46.203125 -11.515625 43.222656 -14.285156 40.453125 -17.140625 C 37.679688 -19.992188 35.035156 -22.929688 32.515625 -25.953125 C 31.503906 -27.128906 31.332031 -28.597656 32 -30.359375 C 32.675781 -32.128906 33.851562 -33.726562 35.53125 -35.15625 C 37.21875 -36.582031 38.941406 -37.546875 40.703125 -38.046875 C 42.460938 -38.554688 43.847656 -38.222656 44.859375 -37.046875 C 45.191406 -36.546875 45.523438 -36.082031 45.859375 -35.65625 C 46.203125 -35.238281 46.539062 -34.863281 46.875 -34.53125 C 49.90625 -33.351562 53.4375 -32.929688 57.46875 -33.265625 C 68.21875 -61.328125 82.078125 -87.957031 99.046875 -113.15625 C 99.890625 -114.332031 101.109375 -114.671875 102.703125 -114.171875 C 104.296875 -113.671875 105.890625 -112.660156 107.484375 -111.140625 C 109.085938 -109.628906 110.265625 -107.945312 111.015625 -106.09375 C 111.773438 -104.25 111.648438 -102.65625 110.640625 -101.3125 C 97.203125 -81.320312 85.773438 -60.238281 76.359375 -38.0625 C 78.046875 -38.5625 79.6875 -39.101562 81.28125 -39.6875 C 82.875 -40.28125 84.34375 -40.828125 85.6875 -41.328125 C 92.070312 -43.515625 98.375 -45.867188 104.59375 -48.390625 C 110.8125 -50.910156 116.859375 -53.679688 122.734375 -56.703125 C 133.148438 -62.078125 143.0625 -68.460938 152.46875 -75.859375 C 161.882812 -83.253906 170.207031 -91.65625 177.4375 -101.0625 C 178.78125 -102.914062 180.289062 -105.269531 181.96875 -108.125 C 183.644531 -110.976562 185.03125 -113.957031 186.125 -117.0625 C 187.21875 -120.175781 187.46875 -123.078125 186.875 -125.765625 C 186.289062 -128.453125 184.488281 -130.550781 181.46875 -132.0625 C 176.925781 -134.414062 171.96875 -135.675781 166.59375 -135.84375 C 161.21875 -136.007812 156.007812 -135.925781 150.96875 -135.59375 C 138.195312 -134.75 125.550781 -132.726562 113.03125 -129.53125 C 100.519531 -126.34375 88.382812 -122.144531 76.625 -116.9375 C 64.519531 -111.394531 53.175781 -104.925781 42.59375 -97.53125 C 40.914062 -96.351562 38.644531 -94.753906 35.78125 -92.734375 C 32.925781 -90.722656 30.15625 -88.457031 27.46875 -85.9375 C 24.78125 -83.414062 22.722656 -80.769531 21.296875 -78 C 19.867188 -75.226562 19.660156 -72.5 20.671875 -69.8125 C 22.179688 -66.445312 22.09375 -64.472656 20.40625 -63.890625 C 18.726562 -63.304688 16.671875 -63.640625 14.234375 -64.890625 C 11.796875 -66.148438 10.160156 -67.875 9.328125 -70.0625 C 6.972656 -75.601562 6.632812 -80.640625 8.3125 -85.171875 C 10 -89.710938 12.816406 -93.832031 16.765625 -97.53125 C 20.710938 -101.226562 24.785156 -104.59375 28.984375 -107.625 C 43.097656 -117.863281 58.132812 -126.265625 74.09375 -132.828125 C 87.363281 -138.367188 101.769531 -142.859375 117.3125 -146.296875 C 132.863281 -149.742188 147.863281 -150.628906 162.3125 -148.953125 C 168.1875 -148.273438 173.9375 -146.757812 179.5625 -144.40625 C 185.195312 -142.0625 189.945312 -138.453125 193.8125 -133.578125 C 198.34375 -127.859375 200.441406 -121.765625 200.109375 -115.296875 C 199.773438 -108.828125 197.757812 -102.570312 194.0625 -96.53125 C 186.5 -84.257812 176.796875 -73.585938 164.953125 -64.515625 C 153.109375 -55.441406 140.800781 -47.796875 128.03125 -41.578125 C 121.3125 -38.390625 114.460938 -35.453125 107.484375 -32.765625 C 100.515625 -30.078125 93.414062 -27.640625 86.1875 -25.453125 Z M 86.1875 -25.453125 "/></g></g></g><g fill="#ffffff" fill-opacity="1"><g transform="translate(147.803114, 247.347264)"><g><path d="M 201.265625 -89.421875 C 202.671875 -89.597656 204.253906 -89.023438 206.015625 -87.703125 C 207.773438 -86.390625 209.179688 -84.804688 210.234375 -82.953125 C 211.285156 -81.109375 211.765625 -79.4375 211.671875 -77.9375 C 211.585938 -76.445312 210.492188 -75.613281 208.390625 -75.4375 C 191.503906 -73.675781 174.535156 -71.566406 157.484375 -69.109375 C 147.628906 -43.429688 139.007812 -17.40625 131.625 8.96875 C 131.269531 10.550781 130.300781 11.253906 128.71875 11.078125 C 127.132812 10.898438 125.421875 10.109375 123.578125 8.703125 C 121.734375 7.296875 120.238281 5.710938 119.09375 3.953125 C 117.945312 2.191406 117.640625 0.519531 118.171875 -1.0625 C 124.328125 -22.863281 131.273438 -44.578125 139.015625 -66.203125 C 120.023438 -63.210938 100.941406 -59.785156 81.765625 -55.921875 C 70.867188 -27.960938 61.113281 0.347656 52.5 29.015625 C 54.070312 31.472656 54.597656 33.492188 54.078125 35.078125 C 52.671875 40.359375 50.117188 45.109375 46.421875 49.328125 C 44.835938 51.085938 42.945312 51.304688 40.75 49.984375 C 38.550781 48.671875 36.660156 46.78125 35.078125 44.3125 C 33.492188 41.851562 32.96875 39.832031 33.5 38.25 C 41.9375 7.820312 51.695312 -22.25 62.78125 -51.96875 C 48.363281 -48.976562 34.03125 -45.722656 19.78125 -42.203125 C 18.195312 -41.847656 16.523438 -42.242188 14.765625 -43.390625 C 13.015625 -44.535156 11.429688 -45.984375 10.015625 -47.734375 C 8.609375 -49.492188 7.816406 -51.164062 7.640625 -52.75 C 7.472656 -54.332031 8.179688 -55.300781 9.765625 -55.65625 C 29.453125 -60.582031 49.320312 -65.066406 69.375 -69.109375 C 78.34375 -91.796875 88.015625 -113.953125 98.390625 -135.578125 C 99.265625 -137.335938 100.535156 -138.085938 102.203125 -137.828125 C 103.878906 -137.566406 105.597656 -136.726562 107.359375 -135.3125 C 109.117188 -133.90625 110.523438 -132.320312 111.578125 -130.5625 C 112.628906 -128.8125 112.804688 -127.234375 112.109375 -125.828125 C 103.835938 -108.410156 96.007812 -90.734375 88.625 -72.796875 C 107.445312 -76.316406 126.265625 -79.484375 145.078125 -82.296875 C 154.921875 -107.441406 165.820312 -132.0625 177.78125 -156.15625 C 178.664062 -157.914062 179.988281 -158.660156 181.75 -158.390625 C 183.507812 -158.128906 185.265625 -157.296875 187.015625 -155.890625 C 188.773438 -154.484375 190.140625 -152.859375 191.109375 -151.015625 C 192.078125 -149.171875 192.207031 -147.632812 191.5 -146.40625 C 181.476562 -126.351562 172.25 -105.863281 163.8125 -84.9375 C 176.289062 -86.519531 188.773438 -88.015625 201.265625 -89.421875 Z M 201.265625 -89.421875 "/></g></g></g></svg>